<svg xmlns="http://www.w3.org/2000/svg" version="1.1" xmlns:xlink="http://www.w3.org/1999/xlink" xmlns:svgjs="http://svgjs.com/svgjs" width="512" height="512" x="0" y="0" viewBox="0 0 64 64" style="enable-background:new 0 0 512 512" xml:space="preserve" class=""><g><g xmlns="http://www.w3.org/2000/svg" id="Scan"><path d="m54 19v-9h-9c-3.9632 0-3.97026-6 0-6h10.08008a4.92544 4.92544 0 0 1 4.91992 4.91992v10.08008c0 3.964-6 3.969-6 0z" fill="#fff" data-original="#fff" style=""></path><path d="m4 19v-10.08008a4.92544 4.92544 0 0 1 4.91992-4.91992h10.08008c3.9632 0 3.97026 6 0 6h-9v9c0 3.964-6 3.969-6 0z" fill="#fff" data-original="#fff" style=""></path><path d="m55.08008 60h-10.08008c-3.9632 0-3.97026-6 0-6h9v-9c0-3.964 6-3.969 6 0v10.08008a4.92544 4.92544 0 0 1 -4.91992 4.91992z" fill="#fff" data-original="#fff" style=""></path><path d="m19 60h-10.08008a4.92544 4.92544 0 0 1 -4.91992-4.91992v-10.08008c0-3.964 6-3.969 6 0v9h9c3.9632 0 3.97026 6 0 6z" fill="#fff" data-original="#fff" style=""></path><path d="m57 35h-50c-3.9632 0-3.97026-6 0-6h50c3.9632 0 3.97026 6 0 6z" fill="#fff" data-original="#fff" style=""></path></g></g></svg>
